<svg width="1440" height="1024" viewBox="0 0 1440 1024" fill="none" xmlns="http://www.w3.org/2000/svg">
<g clip-path="url(#clip0_1_2)">
<path d="M1440 0H0V1024H1440V0Z" fill="white" fill-opacity="0"/>
<path d="M1440 0H0V1024H1440V0Z" fill="white" fill-opacity="0"/>
<path d="M1440 0H0V1024H1440V0Z" fill="white" fill-opacity="0"/>
<path d="M1440 0H0V1024H1440V0Z" fill="white" fill-opacity="0"/>
<path d="M1440 0H0V1024H1440V0Z" fill="white" fill-opacity="0"/>
<path d="M1440 0H0V1024H1440V0Z" fill="white" fill-opacity="0"/>
<path d="M1440 0H0V1024H1440V0Z" fill="white" fill-opacity="0"/>
<path d="M1440 0H0V1024H1440V0Z" fill="white" fill-opacity="0"/>
<path d="M1440 0H0V1024H1440V0Z" fill="white" fill-opacity="0"/>
<path d="M1440 0H0V1024H1440V0Z" fill="white" fill-opacity="0"/>
<path d="M1440 0H0V1024H1440V0Z" fill="white" fill-opacity="0"/>
<path d="M1440 0H0V1024H1440V0Z" fill="white" fill-opacity="0"/>
<path d="M1440 0H0V1024H1440V0Z" fill="white" fill-opacity="0"/>
<path d="M1440 0H0V1024H1440V0Z" fill="white" fill-opacity="0"/>
<path d="M1440 0H0V1024H1440V0Z" fill="white" fill-opacity="0"/>
<path d="M1440 0H0V1024H1440V0Z" fill="white" fill-opacity="0"/>
<path d="M1440 0H0V1024H1440V0Z" fill="white" fill-opacity="0"/>
<path d="M1440 0H0V1024H1440V0Z" fill="white" fill-opacity="0"/>
<path d="M1440 0H0V1024H1440V0Z" fill="white" fill-opacity="0"/>
<path d="M1440 0H0V1024H1440V0Z" fill="white" fill-opacity="0"/>
<path d="M1440 0H0V1024H1440V0Z" fill="white" fill-opacity="0"/>
<path d="M1440 0H0V1024H1440V0Z" fill="white" fill-opacity="0"/>
<path d="M1440 0H0V1024H1440V0Z" fill="white" fill-opacity="0"/>
<path d="M1440 0H0V1024H1440V0Z" fill="white" fill-opacity="0"/>
<path d="M1440 0H0V1024H1440V0Z" fill="white" fill-opacity="0"/>
<path d="M1440 0H0V1024H1440V0Z" fill="white" fill-opacity="0"/>
<path d="M1440 0H0V1024H1440V0Z" fill="white" fill-opacity="0"/>
<path d="M1440 0H0V1024H1440V0Z" fill="white" fill-opacity="0"/>
<path d="M1440 0H0V1024H1440V0Z" fill="white" fill-opacity="0"/>
<path d="M1440 0H0V1024H1440V0Z" fill="white" fill-opacity="0"/>
<path d="M1440 0H0V1024H1440V0Z" fill="white" fill-opacity="0"/>
<path d="M1440 0H0V1024H1440V0Z" fill="white" fill-opacity="0"/>
<path d="M1440 0H0V1024H1440V0Z" fill="white" fill-opacity="0"/>
<path d="M1440 0H0V1024H1440V0Z" fill="white" fill-opacity="0"/>
<path d="M1440 0H0V1024H1440V0Z" fill="white" fill-opacity="0"/>
<path d="M1440 0H0V1024H1440V0Z" fill="white" fill-opacity="0"/>
<path d="M1440 0H0V1024H1440V0Z" fill="white" fill-opacity="0"/>
<path d="M1440 0H0V1024H1440V0Z" fill="white" fill-opacity="0"/>
<path d="M1440 0H0V1024H1440V0Z" fill="white" fill-opacity="0"/>
<path d="M1440 0H0V1024H1440V0Z" fill="white" fill-opacity="0"/>
<path d="M1440 0H0V1024H1440V0Z" fill="white" fill-opacity="0"/>
<path d="M1440 0H0V1024H1440V0Z" fill="white" fill-opacity="0"/>
<path d="M1440 0H0V1024H1440V0Z" fill="white" fill-opacity="0"/>
<path d="M1440 0H0V1024H1440V0Z" fill="white" fill-opacity="0"/>
<path d="M1440 0H0V1024H1440V0Z" fill="white" fill-opacity="0"/>
<path d="M1440 0H0V1024H1440V0Z" fill="white" fill-opacity="0"/>
<path d="M1440 0H0V1024H1440V0Z" fill="white" fill-opacity="0"/>
<path d="M1440 0H0V1024H1440V0Z" fill="white" fill-opacity="0"/>
<path d="M1440 0H0V1024H1440V0Z" fill="white" fill-opacity="0"/>
<path d="M1440 0H0V1024H1440V0Z" fill="white" fill-opacity="0"/>
<path d="M1440 0H0V1024H1440V0Z" fill="white" fill-opacity="0"/>
<path d="M1440 0H0V1024H1440V0Z" fill="white" fill-opacity="0"/>
<path d="M1440 0H0V1024H1440V0Z" fill="white" fill-opacity="0"/>
<path d="M1440 0H0V1024H1440V0Z" fill="white" fill-opacity="0"/>
<path d="M1440 0H0V1024H1440V0Z" fill="white" fill-opacity="0"/>
<path d="M1440 0H0V1024H1440V0Z" fill="white" fill-opacity="0"/>
<path d="M1440 0H0V1024H1440V0Z" fill="white" fill-opacity="0"/>
<path d="M1440 0H0V1024H1440V0Z" fill="white" fill-opacity="0"/>
<path d="M1440 0H0V1024H1440V0Z" fill="white" fill-opacity="0"/>
<path d="M1440 0H0V1024H1440V0Z" fill="white" fill-opacity="0"/>
<path d="M1440 0H0V1024H1440V0Z" fill="white" fill-opacity="0"/>
<path d="M1440 0H0V1024H1440V0Z" fill="white" fill-opacity="0"/>
<path d="M1440 0H0V1024H1440V0Z" fill="white" fill-opacity="0"/>
<path d="M1440 0H0V1024H1440V0Z" fill="white" fill-opacity="0"/>
<path d="M1440 0H0V1024H1440V0Z" fill="white" fill-opacity="0"/>
<path d="M1440 0H0V1024H1440V0Z" fill="white" fill-opacity="0"/>
<path d="M1440 0H0V1024H1440V0Z" fill="white" fill-opacity="0"/>
<path d="M1440 0H0V1024H1440V0Z" fill="white" fill-opacity="0"/>
<path d="M1440 0H0V1024H1440V0Z" fill="white" fill-opacity="0"/>
<path d="M1440 0H0V1024H1440V0Z" fill="white" fill-opacity="0"/>
<path d="M1440 0H0V1024H1440V0Z" fill="white" fill-opacity="0"/>
<path d="M1440 0H0V1024H1440V0Z" fill="white" fill-opacity="0"/>
<path d="M1440 0H0V1024H1440V0Z" fill="white" fill-opacity="0"/>
<path d="M1440 0H0V1024H1440V0Z" fill="white" fill-opacity="0"/>
<path d="M1440 0H0V1024H1440V0Z" fill="white" fill-opacity="0"/>
<path d="M1440 0H0V1024H1440V0Z" fill="white" fill-opacity="0"/>
<path d="M1440 0H0V1024H1440V0Z" fill="white" fill-opacity="0"/>
<path d="M1440 0H0V1024H1440V0Z" fill="white" fill-opacity="0"/>
<path d="M1440 0H0V1024H1440V0Z" fill="white" fill-opacity="0"/>
<path d="M1440 0H0V1024H1440V0Z" fill="white" fill-opacity="0"/>
<path d="M1440 0H0V1024H1440V0Z" fill="white" fill-opacity="0"/>
<path d="M1440 0H0V1024H1440V0Z" fill="white" fill-opacity="0"/>
<path d="M1440 0H0V1024H1440V0Z" fill="white" fill-opacity="0"/>
<path d="M1440 0H0V1024H1440V0Z" fill="white" fill-opacity="0"/>
<path d="M1440 0H0V1024H1440V0Z" fill="white" fill-opacity="0"/>
<path d="M1440 0H0V1024H1440V0Z" fill="white" fill-opacity="0"/>
<path d="M1440 0H0V1024H1440V0Z" fill="white" fill-opacity="0"/>
<path d="M1440 0H0V1024H1440V0Z" fill="white" fill-opacity="0"/>
<path d="M1440 0H0V1024H1440V0Z" fill="white" fill-opacity="0"/>
<path d="M1440 0H0V1024H1440V0Z" fill="white" fill-opacity="0"/>
<path d="M1440 0H0V1024H1440V0Z" fill="white" fill-opacity="0"/>
<path d="M1440 0H0V1024H1440V0Z" fill="white" fill-opacity="0"/>
<path d="M1440 0H0V1024H1440V0Z" fill="white" fill-opacity="0"/>
<path d="M1440 0H0V1024H1440V0Z" fill="white" fill-opacity="0"/>
<path d="M1440 0H0V1024H1440V0Z" fill="white" fill-opacity="0"/>
<path d="M1440 0H0V1024H1440V0Z" fill="white" fill-opacity="0"/>
<path d="M1440 0H0V1024H1440V0Z" fill="white" fill-opacity="0"/>
<path d="M1440 0H0V1024H1440V0Z" fill="white" fill-opacity="0"/>
<path d="M1440 0H0V1024H1440V0Z" fill="white" fill-opacity="0"/>
<path d="M1440 0H0V1024H1440V0Z" fill="white" fill-opacity="0"/>
<path d="M1440 0H0V1024H1440V0Z" fill="white" fill-opacity="0"/>
<path d="M1440 0H0V1024H1440V0Z" fill="white" fill-opacity="0"/>
<path d="M1440 0H0V1024H1440V0Z" fill="white" fill-opacity="0"/>
<path d="M1440 0H0V1024H1440V0Z" fill="white" fill-opacity="0"/>
<path d="M1440 0H0V1024H1440V0Z" fill="white" fill-opacity="0"/>
<path d="M1440 0H0V1024H1440V0Z" fill="white" fill-opacity="0"/>
<path d="M1440 0H0V1024H1440V0Z" fill="white" fill-opacity="0"/>
<path d="M1440 0H0V1024H1440V0Z" fill="white" fill-opacity="0"/>
<path d="M1440 0H0V1024H1440V0Z" fill="white" fill-opacity="0"/>
<path d="M1440 0H0V1024H1440V0Z" fill="white" fill-opacity="0"/>
<path d="M1440 0H0V1024H1440V0Z" fill="white" fill-opacity="0"/>
<path d="M1440 0H0V1024H1440V0Z" fill="white" fill-opacity="0"/>
<path d="M1440 0H0V1024H1440V0Z" fill="white" fill-opacity="0"/>
<path d="M1440 0H0V1024H1440V0Z" fill="white" fill-opacity="0"/>
<path d="M1440 0H0V1024H1440V0Z" fill="white" fill-opacity="0"/>
<path d="M1440 0H0V1024H1440V0Z" fill="white" fill-opacity="0"/>
<path d="M1440 0H0V1024H1440V0Z" fill="white" fill-opacity="0"/>
<path d="M1440 0H0V1024H1440V0Z" fill="white" fill-opacity="0"/>
<path d="M1440 0H0V1024H1440V0Z" fill="white" fill-opacity="0"/>
<path d="M1440 0H0V1024H1440V0Z" fill="white" fill-opacity="0"/>
<path d="M1440 0H0V1024H1440V0Z" fill="white" fill-opacity="0"/>
<path d="M1440 0H0V1024H1440V0Z" fill="white" fill-opacity="0"/>
<path d="M1440 0H0V1024H1440V0Z" fill="white" fill-opacity="0"/>
<path d="M1440 0H0V1024H1440V0Z" fill="white" fill-opacity="0"/>
<path d="M1440 0H0V1024H1440V0Z" fill="white" fill-opacity="0"/>
<path d="M1440 0H0V1024H1440V0Z" fill="white" fill-opacity="0"/>
<path d="M1440 0H0V1024H1440V0Z" fill="white" fill-opacity="0"/>
<path d="M1440 0H0V1024H1440V0Z" fill="white" fill-opacity="0"/>
<path d="M1440 0H0V1024H1440V0Z" fill="white" fill-opacity="0"/>
<path d="M1440 0H0V1024H1440V0Z" fill="white" fill-opacity="0"/>
<path d="M1440 0H0V1024H1440V0Z" fill="white" fill-opacity="0"/>
<path d="M1440 0H0V1024H1440V0Z" fill="white" fill-opacity="0"/>
<path d="M1440 0H0V1024H1440V0Z" fill="white" fill-opacity="0"/>
<path d="M1440 0H0V1024H1440V0Z" fill="white" fill-opacity="0"/>
<path d="M1440 0H0V1024H1440V0Z" fill="white" fill-opacity="0"/>
<path d="M1440 0H0V1024H1440V0Z" fill="white" fill-opacity="0"/>
<path d="M1440 0H0V1024H1440V0Z" fill="white" fill-opacity="0"/>
<path d="M1440 0H0V1024H1440V0Z" fill="white" fill-opacity="0"/>
<path d="M1440 0H0V1024H1440V0Z" fill="white" fill-opacity="0"/>
<path d="M1440 0H0V1024H1440V0Z" fill="white" fill-opacity="0"/>
<path d="M1440 0H0V1024H1440V0Z" fill="white" fill-opacity="0"/>
<path d="M1440 0H0V1024H1440V0Z" fill="white" fill-opacity="0"/>
<path d="M1440 0H0V1024H1440V0Z" fill="white" fill-opacity="0"/>
<path d="M1440 0H0V1024H1440V0Z" fill="white" fill-opacity="0"/>
<path d="M1440 0H0V1024H1440V0Z" fill="white" fill-opacity="0"/>
<path d="M1440 0H0V1024H1440V0Z" fill="white" fill-opacity="0"/>
<path d="M1440 0H0V1024H1440V0Z" fill="white" fill-opacity="0"/>
<path d="M1440 0H0V1024H1440V0Z" fill="white" fill-opacity="0"/>
<path d="M1440 0H0V1024H1440V0Z" fill="white" fill-opacity="0"/>
<path d="M1440 0H0V1024H1440V0Z" fill="white" fill-opacity="0"/>
<path d="M1440 0H0V1024H1440V0Z" fill="white" fill-opacity="0"/>
<path d="M1440 0H0V1024H1440V0Z" fill="white" fill-opacity="0"/>
<path d="M1440 0H0V1024H1440V0Z" fill="white" fill-opacity="0"/>
<path d="M1440 0H0V1024H1440V0Z" fill="white" fill-opacity="0"/>
<path d="M1440 0H0V1024H1440V0Z" fill="white" fill-opacity="0"/>
<path d="M1440 0H0V1024H1440V0Z" fill="white" fill-opacity="0"/>
<path d="M1440 0H0V1024H1440V0Z" fill="white" fill-opacity="0"/>
<path d="M1440 0H0V1024H1440V0Z" fill="white" fill-opacity="0"/>
<path d="M1440 0H0V1024H1440V0Z" fill="white" fill-opacity="0"/>
<path d="M1440 0H0V1024H1440V0Z" fill="white" fill-opacity="0"/>
<path d="M1440 0H0V1024H1440V0Z" fill="white" fill-opacity="0"/>
<path d="M1440 0H0V1024H1440V0Z" fill="white" fill-opacity="0"/>
<path d="M1440 0H0V1024H1440V0Z" fill="white" fill-opacity="0"/>
<path d="M1440 0H0V1024H1440V0Z" fill="white" fill-opacity="0"/>
<path d="M1440 0H0V1024H1440V0Z" fill="white" fill-opacity="0"/>
<path d="M1440 0H0V1024H1440V0Z" fill="white" fill-opacity="0"/>
<path d="M1440 0H0V1024H1440V0Z" fill="white" fill-opacity="0"/>
<path d="M1440 0H0V1024H1440V0Z" fill="white" fill-opacity="0"/>
<path d="M1440 0H0V1024H1440V0Z" fill="white" fill-opacity="0"/>
<path d="M1440 0H0V1024H1440V0Z" fill="white" fill-opacity="0"/>
<path d="M1440 0H0V1024H1440V0Z" fill="white" fill-opacity="0"/>
<path d="M1440 0H0V1024H1440V0Z" fill="white" fill-opacity="0"/>
<path d="M1440 0H0V1024H1440V0Z" fill="white" fill-opacity="0"/>
<path d="M1440 0H0V1024H1440V0Z" fill="white" fill-opacity="0"/>
<path d="M1440 0H0V1024H1440V0Z" fill="white" fill-opacity="0"/>
<path d="M1440 0H0V1024H1440V0Z" fill="white" fill-opacity="0"/>
<path d="M1440 0H0V1024H1440V0Z" fill="white" fill-opacity="0"/>
<path d="M1440 0H0V1024H1440V0Z" fill="white" fill-opacity="0"/>
<path d="M1440 0H0V1024H1440V0Z" fill="white" fill-opacity="0"/>
<path d="M1440 0H0V1024H1440V0Z" fill="white" fill-opacity="0"/>
<path d="M1440 0H0V1024H1440V0Z" fill="white" fill-opacity="0"/>
<path d="M1440 0H0V1024H1440V0Z" fill="white" fill-opacity="0"/>
<path d="M1440 0H0V1024H1440V0Z" fill="white" fill-opacity="0"/>
<path d="M1440 0H0V1024H1440V0Z" fill="white" fill-opacity="0"/>
<path d="M1440 0H0V1024H1440V0Z" fill="white" fill-opacity="0"/>
<path d="M1440 0H0V1024H1440V0Z" fill="white" fill-opacity="0"/>
<path d="M1440 0H0V1024H1440V0Z" fill="white" fill-opacity="0"/>
<path d="M1440 0H0V1024H1440V0Z" fill="white" fill-opacity="0"/>
<path d="M1440 0H0V1024H1440V0Z" fill="white" fill-opacity="0"/>
<path d="M1440 0H0V1024H1440V0Z" fill="white" fill-opacity="0"/>
<path d="M1440 0H0V1024H1440V0Z" fill="white" fill-opacity="0"/>
<path d="M1440 0H0V1024H1440V0Z" fill="white" fill-opacity="0"/>
<path d="M1440 0H0V1024H1440V0Z" fill="white" fill-opacity="0"/>
<path d="M1440 0H0V1024H1440V0Z" fill="white" fill-opacity="0"/>
<path d="M1440 0H0V1024H1440V0Z" fill="white" fill-opacity="0"/>
<path d="M1440 0H0V1024H1440V0Z" fill="white" fill-opacity="0"/>
<path d="M1440 0H0V1024H1440V0Z" fill="white" fill-opacity="0"/>
<path d="M1440 0H0V1024H1440V0Z" fill="white" fill-opacity="0"/>
<path d="M1440 0H0V1024H1440V0Z" fill="white" fill-opacity="0"/>
<path d="M1440 0H0V1024H1440V0Z" fill="white" fill-opacity="0"/>
<path d="M1440 0H0V1024H1440V0Z" fill="white" fill-opacity="0"/>
<path d="M1440 0H0V1024H1440V0Z" fill="white" fill-opacity="0"/>
<path d="M1440 0H0V1024H1440V0Z" fill="white" fill-opacity="0"/>
<path d="M1440 0H0V1024H1440V0Z" fill="white" fill-opacity="0"/>
<path d="M1440 0H0V1024H1440V0Z" fill="white" fill-opacity="0"/>
<path d="M1440 0H0V1024H1440V0Z" fill="white" fill-opacity="0"/>
<path d="M1440 0H0V1024H1440V0Z" fill="white" fill-opacity="0"/>
<path d="M1440 0H0V1024H1440V0Z" fill="white" fill-opacity="0"/>
<path d="M1440 0H0V1024H1440V0Z" fill="white" fill-opacity="0"/>
<path d="M1440 0H0V1024H1440V0Z" fill="white" fill-opacity="0"/>
<path d="M1440 0H0V1024H1440V0Z" fill="white" fill-opacity="0"/>
<path d="M1440 0H0V1024H1440V0Z" fill="white" fill-opacity="0"/>
<path d="M1440 0H0V1024H1440V0Z" fill="white" fill-opacity="0"/>
<path d="M1440 0H0V1024H1440V0Z" fill="white" fill-opacity="0"/>
<path d="M1440 0H0V1024H1440V0Z" fill="white" fill-opacity="0"/>
<path d="M1440 0H0V1024H1440V0Z" fill="white" fill-opacity="0"/>
<path d="M1440 0H0V1024H1440V0Z" fill="white" fill-opacity="0"/>
<path d="M1440 0H0V1024H1440V0Z" fill="white" fill-opacity="0"/>
<path d="M1440 0H0V1024H1440V0Z" fill="white" fill-opacity="0"/>
<path d="M1440 0H0V1024H1440V0Z" fill="white" fill-opacity="0"/>
<path d="M1440 0H0V1024H1440V0Z" fill="white" fill-opacity="0"/>
<path d="M1440 0H0V1024H1440V0Z" fill="white" fill-opacity="0"/>
<path d="M1440 0H0V1024H1440V0Z" fill="white" fill-opacity="0"/>
<path d="M1440 0H0V1024H1440V0Z" fill="white" fill-opacity="0"/>
<path d="M1440 0H0V1024H1440V0Z" fill="white" fill-opacity="0"/>
<path d="M1440 0H0V1024H1440V0Z" fill="white" fill-opacity="0"/>
<path d="M1440 0H0V1024H1440V0Z" fill="white" fill-opacity="0"/>
<path d="M1440 0H0V1024H1440V0Z" fill="white" fill-opacity="0"/>
<path d="M1440 0H0V1024H1440V0Z" fill="white" fill-opacity="0"/>
<path d="M1440 0H0V1024H1440V0Z" fill="white" fill-opacity="0"/>
<path d="M1440 0H0V1024H1440V0Z" fill="white" fill-opacity="0"/>
<path d="M1440 0H0V1024H1440V0Z" fill="white" fill-opacity="0"/>
<path d="M1440 0H0V1024H1440V0Z" fill="white" fill-opacity="0"/>
<path d="M1440 0H0V1024H1440V0Z" fill="white" fill-opacity="0"/>
<path d="M1440 0H0V1024H1440V0Z" fill="white" fill-opacity="0"/>
<path d="M1440 0H0V1024H1440V0Z" fill="white" fill-opacity="0"/>
<path d="M1440 0H0V1024H1440V0Z" fill="white" fill-opacity="0"/>
<path d="M1440 0H0V1024H1440V0Z" fill="white" fill-opacity="0"/>
<path d="M1440 0H0V1024H1440V0Z" fill="white" fill-opacity="0"/>
<path d="M1440 0H0V1024H1440V0Z" fill="white" fill-opacity="0"/>
<path d="M1440 0H0V1024H1440V0Z" fill="white" fill-opacity="0"/>
<path d="M1440 0H0V1024H1440V0Z" fill="white" fill-opacity="0"/>
<path d="M1440 0H0V1024H1440V0Z" fill="white" fill-opacity="0"/>
<path d="M1440 0H0V1024H1440V0Z" fill="white" fill-opacity="0"/>
<path d="M1440 0H0V1024H1440V0Z" fill="white" fill-opacity="0"/>
<path d="M1440 0H0V1024H1440V0Z" fill="white" fill-opacity="0"/>
</g>
<defs>
<clipPath id="clip0_1_2">
<rect width="1440" height="1024" fill="white"/>
</clipPath>
</defs>
</svg>

