<svg width="3396" height="2875" viewBox="0 0 3396 2875" fill="none" xmlns="http://www.w3.org/2000/svg">
<path d="M751.815 2267.6C713.122 3015.84 978.395 2751.73 1225.31 2600.32C1666.69 2359.41 1794.36 1554.46 1578.86 1292.08C1363.36 1029.69 1256.69 983.272 1028.81 1179.59C948.121 1478.17 783.837 1648.36 751.815 2267.6Z" fill="#00FF19"/>
<path d="M420.157 503.165C-286.924 170.519 356.31 809.417 371.429 1069.96C404.107 1633.07 1147.79 2031.43 1411.57 1889.72C1675.34 1748.02 1726.74 1645.65 1556.27 1312.8C1385.79 979.964 789.515 659.536 420.157 503.165Z" fill="#00FF19"/>
<path d="M2644.19 2268.09C2682.88 3016.33 2417.61 2752.23 2170.69 2600.81C1729.31 2359.9 1601.64 1554.95 1817.14 1292.57C2032.64 1030.18 2139.31 983.764 2367.19 1180.08C2447.88 1478.66 2612.16 1648.85 2644.19 2268.09Z" fill="#00FF19"/>
<path d="M2975.84 503.656C3682.92 171.01 3039.69 809.908 3024.57 1070.45C2991.89 1633.56 2248.21 2031.92 1984.43 1890.21C1720.66 1748.51 1669.26 1646.14 1839.73 1313.3C2010.21 980.455 2606.48 660.027 2975.84 503.656Z" fill="#00FF19"/>
</svg>

